<svg width="280" height="248" viewBox="0 0 280 248" fill="none" xmlns="http://www.w3.org/2000/svg">
<g clip-path="url(#clip0_1_838)">
<path d="M267.597 247.67L267.224 247.53C267.142 247.499 258.988 244.37 255.168 237.274C251.348 230.179 253.218 221.635 253.238 221.55L253.326 221.161L253.698 221.301C253.78 221.332 261.934 224.461 265.754 231.556C269.574 238.652 267.704 247.196 267.684 247.281L267.597 247.67ZM255.779 236.944C259.009 242.944 265.453 246.019 267.085 246.721C267.396 244.968 268.369 237.88 265.143 231.887C261.916 225.894 255.47 222.814 253.837 222.11C253.526 223.864 252.553 230.951 255.779 236.944Z" fill="#3F3D56"/>
<path d="M258.087 234.785C264.952 238.922 267.595 247.139 267.595 247.139C267.595 247.139 259.109 248.649 252.245 244.512C245.38 240.375 242.736 232.158 242.736 232.158C242.736 232.158 251.222 230.649 258.087 234.785Z" fill="#4075CA"/>
<path d="M147.57 132.911C147.903 132.395 148.341 131.956 148.855 131.622C149.369 131.288 149.947 131.066 150.553 130.972C151.158 130.877 151.777 130.912 152.368 131.074C152.959 131.235 153.51 131.52 153.983 131.91C154.132 132.034 154.273 132.168 154.404 132.312L171.499 129.819L172.451 116.942C172.523 115.954 172.985 115.036 173.734 114.389C174.483 113.742 175.458 113.419 176.444 113.492C177.43 113.565 178.347 114.028 178.993 114.778C179.639 115.528 179.961 116.504 179.888 117.492C179.886 117.515 179.884 117.538 179.882 117.561L178.216 135.629L178.208 135.669C177.991 136.364 177.556 136.97 176.968 137.398C176.38 137.825 175.67 138.051 174.944 138.043L154.836 137.695C154.758 137.814 154.674 137.93 154.584 138.04C154.195 138.514 153.71 138.901 153.161 139.175C152.613 139.448 152.013 139.603 151.4 139.628C150.788 139.653 150.178 139.548 149.608 139.32C149.039 139.092 148.525 138.747 148.099 138.306C148.012 138.217 147.93 138.125 147.852 138.031C147.273 137.316 146.934 136.436 146.883 135.517C146.832 134.597 147.073 133.685 147.57 132.911Z" fill="#FFB7B7"/>
<path d="M182.037 242.699L177.161 242.699L174.841 223.861L182.037 223.861L182.037 242.699Z" fill="#FFB7B7"/>
<path d="M183.28 247.433L167.558 247.433V247.234C167.558 245.608 168.203 244.049 169.351 242.9C170.498 241.75 172.055 241.104 173.678 241.104H173.678L183.28 241.105L183.28 247.433Z" fill="#2F2E41"/>
<path d="M216.108 238.271L211.493 239.848L203.226 222.769L210.037 220.442L216.108 238.271Z" fill="#FFB7B7"/>
<path d="M218.811 242.35L203.931 247.433L203.866 247.245C203.342 245.706 203.45 244.022 204.166 242.563C204.882 241.104 206.146 239.99 207.682 239.465L207.683 239.465L216.771 236.36L218.811 242.35Z" fill="#2F2E41"/>
<path d="M187.406 77.9883C187.406 77.9883 182.553 76.383 179.433 82.8045C176.313 89.226 171.46 96.2897 171.46 96.2897L174.233 96.9318C174.233 96.9318 174.927 92.4368 176.66 91.7946L175.967 97.574C175.967 97.574 196.765 104.317 206.125 96.9319L205.778 94.6843C205.778 94.6843 207.165 95.0054 207.165 96.9319L208.205 95.9686C208.205 95.9686 207.165 94.0422 204.045 91.4736C201.997 89.7877 201.294 86.5802 201.052 84.5748C200.86 82.8771 200.133 81.2846 198.977 80.0286C196.903 77.803 193.126 75.4376 187.406 77.9883Z" fill="#2F2E41"/>
<path d="M189.195 100.424C194.09 100.424 198.059 96.4491 198.059 91.5457C198.059 86.6423 194.09 82.6672 189.195 82.6672C184.299 82.6672 180.331 86.6423 180.331 91.5457C180.331 96.4491 184.299 100.424 189.195 100.424Z" fill="#FFB7B7"/>
<path d="M177.376 107.735L175.765 107.197C175.765 107.197 172.542 108.542 172.542 110.963C172.542 113.385 172.004 123.07 172.004 123.07L179.257 123.877L177.376 107.735Z" fill="#CBCBCB"/>
<path d="M206.221 160.655C205.553 159.905 205.175 158.939 205.158 157.934C205.14 156.928 205.484 155.95 206.125 155.177L201.601 117.225C201.557 116.33 201.869 115.454 202.469 114.789C203.068 114.125 203.907 113.725 204.8 113.679C205.694 113.633 206.569 113.944 207.234 114.543C207.899 115.143 208.299 115.982 208.347 116.877C208.347 116.889 208.348 116.902 208.348 116.914L212.396 154.906C212.543 155.054 212.678 155.212 212.8 155.38C213.125 155.83 213.358 156.339 213.486 156.879C213.614 157.419 213.635 157.979 213.547 158.527C213.459 159.075 213.265 159.6 212.974 160.073C212.684 160.545 212.303 160.956 211.854 161.281C211.808 161.314 211.76 161.347 211.712 161.379C211.193 161.723 210.603 161.948 209.986 162.038C209.37 162.127 208.741 162.079 208.145 161.896C207.401 161.67 206.734 161.24 206.221 160.655Z" fill="#FFB7B7"/>
<path d="M202.078 123.07L209.33 122.263C209.33 122.263 208.793 112.578 208.793 110.156C208.793 107.735 205.569 106.39 205.569 106.39L203.958 106.928L202.078 123.07Z" fill="#CBCBCB"/>
<path d="M178.451 136.509C178.451 136.509 172.273 147.822 172.273 161.544C172.273 175.265 171.736 238.221 171.736 238.221C171.736 238.221 179.794 241.988 184.629 237.414L188.926 167.732L205.848 236.069C205.848 236.069 213.906 237.683 217.667 234.992L210.414 187.372C210.414 187.372 207.46 142.711 199.402 139.482C191.344 136.254 178.451 136.509 178.451 136.509Z" fill="#2F2E41"/>
<path d="M179.617 91.6019C182.755 89.3273 185.295 86.7073 186.975 83.5908C186.975 83.5908 192.733 89.9997 196.252 90.3202C199.772 90.6406 196.572 82.6295 196.572 82.6295L190.174 81.0272L184.095 81.6681L179.297 84.8726L179.617 91.6019Z" fill="#2F2E41"/>
<path d="M198.059 104.775C198.059 104.775 198.314 104.638 183.018 105.196L176.616 106.962L175.765 107.197C175.765 107.197 176.57 123.339 178.719 126.299C180.868 129.258 180.331 130.873 179.794 131.142C179.256 131.411 177.913 130.873 178.719 132.218C179.525 133.563 180.599 132.756 179.525 133.563C178.451 134.37 177.913 137.33 177.913 137.33L201.55 140.558C201.55 140.558 202.356 130.065 204.505 124.685C206.654 119.304 207.191 117.151 207.191 117.151L205.579 106.39L198.059 104.775Z" fill="#CBCBCB"/>
<path d="M153.12 58.8841H151.761V21.5867C151.761 15.8616 149.49 10.3709 145.449 6.32262C141.407 2.27432 135.925 9.22871e-06 130.21 0L51.3198 0C45.604 -1.56886e-05 40.1224 2.27428 36.0807 6.32255C32.0391 10.3708 29.7685 15.8615 29.7685 21.5866V226.203C29.7685 231.928 32.0391 237.419 36.0807 241.467C40.1223 245.515 45.6039 247.79 51.3197 247.79H130.209C133.04 247.79 135.842 247.231 138.457 246.147C141.071 245.062 143.447 243.472 145.448 241.467C147.45 239.463 149.037 237.083 150.12 234.464C151.203 231.845 151.761 229.038 151.761 226.203V85.433H153.12L153.12 58.8841Z" fill="#3F3D56"/>
<path d="M147.174 21.7384V226.054C147.176 228.169 146.762 230.264 145.955 232.219C145.149 234.174 143.966 235.95 142.474 237.447C140.982 238.944 139.211 240.132 137.261 240.943C135.31 241.755 133.22 242.173 131.108 242.175H51.8107C47.5451 242.178 43.4531 240.484 40.4347 237.465C37.4163 234.445 35.719 230.349 35.7159 226.076V21.7383C35.7145 19.6228 36.129 17.5276 36.9359 15.5725C37.7428 13.6174 38.9262 11.8406 40.4187 10.3436C41.9111 8.84659 43.6833 7.65869 45.6341 6.84771C47.5848 6.03674 49.6759 5.61856 51.7881 5.61707H61.4266C60.9531 6.77998 60.7723 8.0417 60.9003 9.29107C61.0283 10.5404 61.4611 11.7391 62.1606 12.7814C62.86 13.8238 63.8047 14.6778 64.9114 15.2683C66.018 15.8587 67.2527 16.1675 68.5065 16.1674H113.703C114.956 16.1675 116.191 15.8587 117.298 15.2683C118.404 14.6778 119.349 13.8238 120.049 12.7814C120.748 11.7391 121.181 10.5404 121.309 9.29107C121.437 8.0417 121.256 6.77998 120.782 5.61707H131.079C135.344 5.61324 139.436 7.30653 142.454 10.3244C145.472 13.3423 147.17 17.4376 147.174 21.7094V21.7384L147.174 21.7384Z" fill="white"/>
<path d="M147.174 51.9662V45.0069H136.658V6.6123C134.872 5.95161 132.983 5.61462 131.079 5.61708H129.71V45.0069H93.234V16.1675H86.2861V45.0069H55.7154V5.61711H51.8108C50.7895 5.61552 49.7704 5.71223 48.7675 5.90593V45.0069H35.716V51.9662H48.7675V68.0634L35.7161 75.6107V83.6487L48.7675 76.1014V123.995H35.716V130.955H48.7675V200.2H35.716V207.159H48.7675V241.886C49.7704 242.08 50.7895 242.177 51.8108 242.175H55.7154V207.159H86.2861V242.175H93.234V207.159H129.71V242.175H131.079C132.983 242.178 134.872 241.841 136.658 241.18V207.159H147.174V200.2H136.658V169.927H147.08V162.968H136.658V130.955H147.174V123.995H136.658V81.5434H147.174V74.5841H136.658V51.9662L147.174 51.9662ZM76.6045 51.9662L76.6044 51.9663L55.7156 64.0477L55.7154 64.0478V51.9662H76.6045ZM55.7154 72.0824L55.7156 72.0823L86.2861 54.4022V123.995H55.7154V72.0824ZM55.7154 200.2V130.955H86.2861V200.2H55.7154ZM129.71 200.2H93.234V169.927H129.71V200.2ZM129.71 162.967H93.234V130.955H129.71V162.967ZM129.71 123.995H93.234V81.5434H129.71V123.995ZM129.71 74.584H93.234V51.9662H129.71V74.584Z" fill="#E5E5E5"/>
<path d="M152.986 74.7128C152.986 96.8131 113.036 146.046 113.036 146.046C113.036 146.046 73.0852 96.8131 73.0852 74.7128C73.0852 64.0998 77.2943 53.9216 84.7864 46.4171C92.2785 38.9126 102.44 34.6967 113.036 34.6967C123.631 34.6967 133.793 38.9126 141.285 46.4171C148.777 53.9216 152.986 64.0998 152.986 74.7128Z" fill="#4075CA"/>
<path d="M136.659 72.973C136.659 77.6528 135.273 82.2276 132.678 86.1187C130.082 90.0099 126.393 93.0427 122.076 94.8336C117.76 96.6245 113.01 97.093 108.427 96.1801C103.845 95.2671 99.6358 93.0135 96.3321 89.7044C93.0284 86.3952 90.7786 82.1791 89.8671 77.5892C88.9556 72.9992 89.4234 68.2417 91.2113 63.918C92.9993 59.5944 96.0271 55.899 99.9118 53.299C103.797 50.699 108.364 49.3113 113.036 49.3113C116.137 49.3099 119.207 49.9202 122.073 51.1074C124.938 52.2947 127.542 54.0356 129.735 56.2308C131.929 58.4259 133.669 61.0324 134.857 63.9013C136.045 66.7702 136.657 69.8454 136.659 72.9513V72.973Z" fill="white"/>
<path d="M112.954 82.3134C117.814 82.3134 121.754 78.3667 121.754 73.4982C121.754 68.6298 117.814 64.6831 112.954 64.6831C108.093 64.6831 104.153 68.6298 104.153 73.4982C104.153 78.3667 108.093 82.3134 112.954 82.3134Z" fill="#4075CA"/>
<path d="M125.726 93.6317C121.932 96.0481 117.53 97.3312 113.034 97.3306C108.538 97.3299 104.135 96.0456 100.342 93.6282C101.131 90.8661 102.797 88.4365 105.087 86.7069C107.377 84.9774 110.167 84.0421 113.036 84.0425C115.904 84.0429 118.694 84.979 120.983 86.7091C123.273 88.4393 124.938 90.8693 125.726 93.6317Z" fill="#4075CA"/>
<path d="M113.036 174.927C118.983 174.927 123.805 170.098 123.805 164.14C123.805 158.183 118.983 153.353 113.036 153.353C107.088 153.353 102.266 158.183 102.266 164.14C102.266 170.098 107.088 174.927 113.036 174.927Z" fill="#4075CA"/>
<path d="M279.653 248H0.347395C0.25526 248 0.166899 247.963 0.10175 247.898C0.0366004 247.833 0 247.744 0 247.652C0 247.56 0.0366004 247.471 0.10175 247.406C0.166899 247.341 0.25526 247.304 0.347395 247.304H279.653C279.745 247.304 279.833 247.341 279.898 247.406C279.963 247.471 280 247.56 280 247.652C280 247.744 279.963 247.833 279.898 247.898C279.833 247.963 279.745 248 279.653 248Z" fill="#CBCBCB"/>
</g>
<defs>
<clipPath id="clip0_1_838">
<rect width="280" height="248" fill="white"/>
</clipPath>
</defs>
</svg>
