<svg width="243" height="259" viewBox="0 0 243 259" fill="none" xmlns="http://www.w3.org/2000/svg">
<path d="M121.166 242.22C188.084 242.22 242.331 187.997 242.331 121.11C242.331 54.2228 188.084 0 121.166 0C54.2477 0 0 54.2228 0 121.11C0 187.997 54.2477 242.22 121.166 242.22Z" fill="#F2F2F2"/>
<path d="M123.856 258.551C186.737 258.551 237.712 250.399 237.712 240.342C237.712 230.286 186.737 222.134 123.856 222.134C60.9751 222.134 10 230.286 10 240.342C10 250.399 60.9751 258.551 123.856 258.551Z" fill="#F2F2F2"/>
<path d="M102.156 65.3148C102.156 65.3148 103.126 68.5444 97.6328 71.4511C92.1399 74.3578 90.5244 85.3385 96.9866 88.5681C103.449 91.7978 105.388 95.9963 102.156 98.9029C98.9253 101.81 93.1093 109.561 100.864 111.498C108.619 113.436 109.588 117.312 107.326 118.927C105.064 120.541 112.496 116.02 112.496 116.02C112.496 116.02 113.788 123.771 120.574 121.833C127.359 119.896 146.423 83.0778 136.729 77.9104C127.036 72.743 102.156 65.3148 102.156 65.3148Z" fill="#2F2E41"/>
<path d="M113.871 96.5028C113.871 96.5028 117.223 108.228 111.358 109.066C107.718 109.633 104.269 111.069 101.303 113.253L112.196 127.491H132.305L144.874 114.928C144.874 114.928 128.116 102.365 131.467 94.8277C134.819 87.29 113.871 96.5028 113.871 96.5028Z" fill="#FFB9B9"/>
<path opacity="0.1" d="M113.871 96.5028C113.871 96.5028 117.223 108.228 111.358 109.066C107.718 109.633 104.269 111.069 101.303 113.253L112.196 127.491H132.305L144.874 114.928C144.874 114.928 128.116 102.365 131.467 94.8277C134.819 87.29 113.871 96.5028 113.871 96.5028Z" fill="#2F2E41"/>
<path d="M118.898 242.233L138.17 248.933L151.576 249.77L150.738 238.045L123.087 229.871L118.898 242.233Z" fill="#FFB9B9"/>
<path d="M143.611 239.718C143.611 239.718 143.611 251.443 145.287 251.443C146.963 251.443 169.587 248.93 176.29 251.443C182.993 253.956 193.048 244.743 188.021 239.718C182.993 234.693 174.793 227.155 169.676 228.83C164.559 230.505 143.611 234.693 143.611 234.693V239.718Z" fill="#575A89"/>
<path d="M82.0307 228.834C82.0307 228.834 71.9757 248.935 78.679 250.61C85.3823 252.285 92.9236 249.772 93.7615 248.935C94.5994 248.097 106.33 244.747 108.006 246.422C109.682 248.097 109.682 239.722 109.682 239.722L82.0307 228.834Z" fill="#575A89"/>
<path d="M90.4186 201.193C90.4186 201.193 74.4983 222.969 86.2291 228.832C97.9598 234.694 154.1 234.694 158.289 228.832C162.479 222.969 164.155 204.543 158.289 202.868C152.424 201.193 90.4186 201.193 90.4186 201.193Z" fill="#2F2E41"/>
<path opacity="0.2" d="M90.4186 201.193C90.4186 201.193 74.4983 222.969 86.2291 228.832C97.9598 234.694 154.1 234.694 158.289 228.832C162.479 222.969 164.155 204.543 158.289 202.868C152.424 201.193 90.4186 201.193 90.4186 201.193Z" fill="#2F2E41"/>
<path d="M120.575 102.37C131.218 102.37 139.847 93.7459 139.847 83.1072C139.847 72.4685 131.218 63.8441 120.575 63.8441C109.931 63.8441 101.303 72.4685 101.303 83.1072C101.303 93.7459 109.931 102.37 120.575 102.37Z" fill="#FFB9B9"/>
<path d="M90.4101 113.257L107.168 109.907C107.168 109.907 111.358 123.307 124.764 120.795C138.171 118.282 141.523 109.907 141.523 109.907C141.523 109.907 151.578 114.095 152.416 114.095C153.253 114.095 164.146 118.282 164.146 120.795C164.146 123.307 151.578 148.433 151.578 148.433L153.253 193.659L91.248 191.984L95.4376 147.596L90.4101 113.257Z" fill="#4075CA"/>
<path d="M81.1965 135.029C81.1965 135.029 76.169 179.418 79.5207 182.768C82.8724 186.118 96.279 195.331 96.279 195.331V185.281L89.5756 172.718L96.279 143.404L81.1965 135.029Z" fill="#FFB9B9"/>
<path d="M167.919 133.772C167.919 133.772 164.986 179.418 164.986 181.093C164.986 182.768 157.445 188.63 154.931 188.63C152.418 188.63 150.742 184.443 150.742 184.443L156.607 177.743L152.418 143.404L167.919 133.772Z" fill="#FFB9B9"/>
<path d="M159.954 197.842C159.954 197.842 197.66 176.904 198.498 197.842C199.336 218.78 179.226 227.155 179.226 227.155C179.226 227.155 127.275 242.726 125.181 237.034C123.086 231.343 118.896 222.13 122.248 221.293C125.6 220.455 129.789 218.78 131.465 220.455C133.141 222.13 154.089 207.892 154.089 207.892L159.954 197.842Z" fill="#2F2E41"/>
<path opacity="0.2" d="M177.549 195.332C177.549 195.332 170.008 198.682 167.494 201.195C164.98 203.708 154.087 207.895 154.087 207.895" stroke="#2F2E41" stroke-width="2" stroke-miterlimit="10"/>
<path d="M95.4386 114.929L90.4112 113.254C90.4112 113.254 71.9771 132.517 77.8425 137.543C83.7079 142.568 87.0595 144.243 88.7353 145.918C90.4112 147.593 98.7903 148.43 98.7903 148.43L95.4386 114.929Z" fill="#4075CA"/>
<path d="M156.604 119.121L164.145 120.796C164.145 120.796 170.01 133.359 171.686 135.034C173.362 136.709 169.172 135.871 166.659 139.221C164.145 142.571 161.631 148.434 156.604 148.434C151.576 148.434 144.873 140.059 144.873 140.059L156.604 119.121Z" fill="#4075CA"/>
<path d="M92.0945 205.385C92.0945 205.385 60.2539 182.771 49.361 199.522C38.4682 216.272 96.284 238.886 104.663 242.236C113.042 245.586 120.583 248.936 120.583 248.936C120.583 248.936 128.125 230.51 128.125 227.16C128.125 223.81 122.259 223.81 120.583 223.81C118.908 223.81 111.366 222.135 109.691 219.623C108.015 217.11 92.0945 205.385 92.0945 205.385Z" fill="#2F2E41"/>
<path opacity="0.2" d="M74.4936 199.525C74.4936 199.525 82.8728 206.225 90.414 207.9C97.9551 209.575 100.469 213.763 100.469 213.763" stroke="#2F2E41" stroke-width="2" stroke-miterlimit="10"/>
<path d="M86.2994 168.027L86.9688 203.488C86.9909 204.66 87.4753 205.775 88.3165 206.59C89.1576 207.406 90.2872 207.857 91.4592 207.843L157.481 207.102C158.606 207.089 159.684 206.651 160.498 205.874C161.311 205.098 161.8 204.041 161.865 202.919L163.869 168.199C163.904 167.596 163.815 166.991 163.608 166.423C163.401 165.855 163.08 165.336 162.664 164.896C162.249 164.457 161.749 164.106 161.193 163.867C160.638 163.628 160.04 163.504 159.435 163.504H90.7399C90.1496 163.504 89.5653 163.622 89.021 163.85C88.4767 164.078 87.9834 164.413 87.57 164.834C87.1565 165.255 86.8312 165.754 86.6131 166.303C86.3949 166.851 86.2883 167.437 86.2994 168.027Z" fill="#575A89"/>
<path d="M121.606 58.9019C121.606 58.9019 122.68 62.4796 116.595 65.6996C110.51 68.9196 108.72 81.0841 115.879 84.6619C123.038 88.2397 125.186 92.8908 121.606 96.1108C118.027 99.3308 111.584 107.917 120.174 110.064C128.765 112.211 129.839 116.504 127.333 118.293C124.828 120.082 133.06 115.073 133.06 115.073C133.06 115.073 134.492 123.66 142.009 121.513C149.526 119.366 157.026 80.3449 148.647 70.2946C140.855 60.9496 121.606 58.9019 121.606 58.9019Z" fill="#2F2E41"/>
<path d="M119.326 55.2256C119.327 49.984 135.016 53.7503 141.743 61.0688C146.401 66.1368 153.476 73.7614 147.547 79.1359C141.618 84.5105 157.709 91.556 162.025 93.6921C166.34 95.8282 174.861 102.361 167.167 106.743C159.474 111.125 159.598 115.549 162.493 116.596C165.389 117.644 156.11 115.039 156.11 115.039C156.11 115.039 157.047 123.693 149.23 123.652C141.412 123.611 118.985 80.6678 124.342 68.7315C129.324 57.633 119.326 55.2256 119.326 55.2256Z" fill="#2F2E41"/>
<path d="M122.721 54.0711C101.741 52.8083 99.6356 68.5937 99.6356 68.5937C99.7806 77.7288 114.294 73.2777 118.325 74.6395C123.188 71.1426 132.562 64.5263 139.267 59.8045C134.399 56.3789 128.666 54.3919 122.721 54.0711Z" fill="#2F2E41"/>
</svg>
