<svg width="55" height="42" viewBox="0 0 55 42" fill="none" xmlns="http://www.w3.org/2000/svg">
<path d="M41.8579 0.711548V2.00386C41.8579 3.1077 41.5886 4.18463 40.9963 5.12693L25.4079 30.1385C24.6271 30.9192 23.3079 30.3539 23.3079 29.2769V22.3308L32.3271 7.87309C33.2425 6.39232 33.6194 4.75001 33.6194 3.00001V0.711548H20.9386V2.03078C20.9386 3.13463 20.6156 4.23847 20.0232 5.18078L4.48863 30.0577C3.70786 30.8385 2.38863 30.2731 2.38863 29.1962V22.4654L11.354 7.84616C12.2694 6.36539 12.7271 4.66924 12.7271 2.94616V0.738471H0.0732422V33.6923C0.0732422 37.3539 2.7117 40.5577 6.34632 41.0692C9.22709 41.4731 12.0002 40.1539 13.5348 37.7846L20.9656 26.1808V33.8539C20.9656 37.8923 24.2232 41.15 28.2617 41.15H28.2886C30.7656 41.15 33.2156 39.8577 34.5348 37.7846L53.1925 7.90001C54.1348 6.39232 54.5386 4.96539 54.5386 3.18847V0.765393H41.8579V0.711548Z" fill="white"/>
</svg>
