<svg width="24" height="25" viewBox="0 0 24 25" fill="none" xmlns="http://www.w3.org/2000/svg">
<path d="M23.5834 12.2998C23.5834 11.3105 23.5031 10.5885 23.3294 9.83984H12.0322V14.3052H18.6634C18.5298 15.4149 17.8078 17.086 16.2034 18.209L16.181 18.3585L19.7529 21.1257L20.0004 21.1504C22.2731 19.0513 23.5834 15.963 23.5834 12.2998Z" fill="#4285F4"/>
<path d="M12.0322 24.0648C15.281 24.0648 18.0083 22.9952 20.0004 21.1503L16.2035 18.2089C15.1874 18.9175 13.8237 19.4122 12.0322 19.4122C8.85034 19.4122 6.14974 17.3133 5.18705 14.4121L5.04594 14.4241L1.33178 17.2985L1.2832 17.4335C3.26185 21.3641 7.32616 24.0648 12.0322 24.0648Z" fill="#34A853"/>
<path d="M5.18728 14.4121C4.93326 13.6634 4.78626 12.8612 4.78626 12.0323C4.78626 11.2034 4.93326 10.4012 5.17391 9.65256L5.16718 9.49311L1.40648 6.57251L1.28343 6.63104C0.467934 8.26212 0 10.0938 0 12.0323C0 13.9709 0.467934 15.8024 1.28343 17.4335L5.18728 14.4121Z" fill="#FBBC05"/>
<path d="M12.0327 4.65252C14.2921 4.65252 15.8162 5.62848 16.6852 6.44407L20.0811 3.12844C17.9955 1.18988 15.2814 0 12.0327 0C7.32665 0 3.26234 2.7006 1.28369 6.63117L5.17417 9.6527C6.15022 6.75154 8.85082 4.65252 12.0327 4.65252Z" fill="#EB4335"/>
</svg>
