<svg width="40" height="40" viewBox="0 0 40 40" fill="none" xmlns="http://www.w3.org/2000/svg">
<circle cx="20" cy="20" r="20" fill="#FFC933" fill-opacity="0.15"/>
<g filter="url(#filter0_d_1_1114)">
<path fill-rule="evenodd" clip-rule="evenodd" d="M20.11 31.22C26.2459 31.22 31.22 26.2459 31.22 20.11C31.22 13.9741 26.2459 9 20.11 9C13.9741 9 9 13.9741 9 20.11C9 26.2459 13.9741 31.22 20.11 31.22Z" fill="#FFC933"/>
<path fill-rule="evenodd" clip-rule="evenodd" d="M20.11 31.22C26.2459 31.22 31.22 26.2459 31.22 20.11C31.22 13.9741 26.2459 9 20.11 9C13.9741 9 9 13.9741 9 20.11C9 26.2459 13.9741 31.22 20.11 31.22Z" stroke="white" stroke-width="3"/>
</g>
<path d="M18.1041 26.3147V21.3981C17.8589 21.3626 17.6315 21.3448 17.4108 21.2959C16.7054 21.1422 16.074 20.7513 15.6219 20.1885C15.1699 19.6256 14.9244 18.9248 14.9266 18.2029C14.9229 17.2052 14.9266 16.2075 14.9266 15.2098V15.0483H16.516V15.2617C16.516 16.2097 16.516 17.1578 16.516 18.1059C16.5013 18.3314 16.5349 18.5575 16.6146 18.769C16.6943 18.9805 16.8182 19.1726 16.9781 19.3324C17.1379 19.4921 17.33 19.616 17.5416 19.6955C17.7532 19.7751 17.9792 19.8086 18.2048 19.7938C18.8408 19.7938 19.4768 19.7938 20.1128 19.7938C21.0134 19.7938 21.9143 19.7938 22.8154 19.7938C23.5759 19.7786 24.3163 20.0394 24.8994 20.5278C25.4826 21.0162 25.8692 21.6992 25.9877 22.4506C26.0176 22.6218 26.0325 22.7953 26.0321 22.9691C26.0358 23.9727 26.0321 24.977 26.0321 25.9806C26.0321 26.0228 26.027 26.0651 26.0226 26.1199H24.442V25.9177C24.442 24.9259 24.4486 23.9349 24.442 22.9439C24.4394 22.5489 24.2885 22.1693 24.0192 21.8804C23.7499 21.5915 23.3818 21.4143 22.988 21.384C22.9525 21.384 22.914 21.384 22.8525 21.384V26.3154L18.1041 26.3147ZM20.3601 18.2014C19.8208 18.1719 19.3072 17.961 18.9029 17.6027C18.4985 17.2445 18.2272 16.7601 18.1329 16.2282C18.0278 15.6105 18.17 14.9762 18.5286 14.4623C18.8873 13.9485 19.4337 13.5963 20.0498 13.4818C20.0905 13.4718 20.1306 13.4592 20.1697 13.4441H20.7623C21.0306 13.5128 21.2937 13.6005 21.5496 13.7063C22.0361 13.9486 22.424 14.3514 22.6478 14.8467C22.8715 15.342 22.9174 15.8993 22.7776 16.4245C22.6444 16.937 22.3438 17.3903 21.9235 17.7123C21.5032 18.0344 20.9874 18.2068 20.4579 18.2021L20.3601 18.2014Z" fill="white"/>
<defs>
<filter id="filter0_d_1_1114" x="3.5" y="5.5" width="33.22" height="33.22" filterUnits="userSpaceOnUse" color-interpolation-filters="sRGB">
<feFlood flood-opacity="0" result="BackgroundImageFix"/>
<feColorMatrix in="SourceAlpha" type="matrix" values="0 0 0 0 0 0 0 0 0 0 0 0 0 0 0 0 0 0 127 0" result="hardAlpha"/>
<feOffset dy="2"/>
<feGaussianBlur stdDeviation="2"/>
<feColorMatrix type="matrix" values="0 0 0 0 0 0 0 0 0 0 0 0 0 0 0 0 0 0 0.1 0"/>
<feBlend mode="normal" in2="BackgroundImageFix" result="effect1_dropShadow_1_1114"/>
<feBlend mode="normal" in="SourceGraphic" in2="effect1_dropShadow_1_1114" result="shape"/>
</filter>
</defs>
</svg>
