<svg width="40" height="40" viewBox="0 0 40 40" fill="none" xmlns="http://www.w3.org/2000/svg">
<circle cx="20" cy="20" r="20" fill="#13924F" fill-opacity="0.15"/>
<g filter="url(#filter0_d_1_908)">
<path fill-rule="evenodd" clip-rule="evenodd" d="M20 31.1111C26.1365 31.1111 31.1111 26.1365 31.1111 20C31.1111 13.8635 26.1365 8.88892 20 8.88892C13.8635 8.88892 8.88892 13.8635 8.88892 20C8.88892 26.1365 13.8635 31.1111 20 31.1111Z" fill="#13924F"/>
<path fill-rule="evenodd" clip-rule="evenodd" d="M20 31.1111C26.1365 31.1111 31.1111 26.1365 31.1111 20C31.1111 13.8635 26.1365 8.88892 20 8.88892C13.8635 8.88892 8.88892 13.8635 8.88892 20C8.88892 26.1365 13.8635 31.1111 20 31.1111Z" stroke="white" stroke-width="3"/>
</g>
<path fill-rule="evenodd" clip-rule="evenodd" d="M20.0016 24.8739C22.693 24.8739 24.8749 22.6921 24.8749 20.0006C24.8749 17.3092 22.693 15.1273 20.0016 15.1273C17.3101 15.1273 15.1283 17.3092 15.1283 20.0006C15.1283 22.6921 17.3101 24.8739 20.0016 24.8739Z" fill="white"/>
<defs>
<filter id="filter0_d_1_908" x="3.38892" y="5.38892" width="33.2222" height="33.2222" filterUnits="userSpaceOnUse" color-interpolation-filters="sRGB">
<feFlood flood-opacity="0" result="BackgroundImageFix"/>
<feColorMatrix in="SourceAlpha" type="matrix" values="0 0 0 0 0 0 0 0 0 0 0 0 0 0 0 0 0 0 127 0" result="hardAlpha"/>
<feOffset dy="2"/>
<feGaussianBlur stdDeviation="2"/>
<feColorMatrix type="matrix" values="0 0 0 0 0 0 0 0 0 0 0 0 0 0 0 0 0 0 0.07 0"/>
<feBlend mode="normal" in2="BackgroundImageFix" result="effect1_dropShadow_1_908"/>
<feBlend mode="normal" in="SourceGraphic" in2="effect1_dropShadow_1_908" result="shape"/>
</filter>
</defs>
</svg>
