<svg width="174" height="46" viewBox="0 0 174 46" fill="none" xmlns="http://www.w3.org/2000/svg">
<path d="M82.8579 12.4H74.8887V45.4346H82.8579V12.4Z" fill="white"/>
<path d="M82.8579 0.74231H74.8887V8.71154H82.8579V0.74231Z" fill="white"/>
<path d="M110.292 12.4V13.8538C110.292 15.0384 109.969 16.1961 109.323 17.1923L97.4232 36.1192C97.0462 36.7115 96.1309 36.4423 96.1309 35.7423V12.4807H88.1616V37.6C88.1616 42.0961 91.7962 45.7307 96.2924 45.7307C99.0924 45.7307 101.704 44.3038 103.185 41.9077L116.539 20.6384C117.642 18.8884 118.235 16.8423 118.235 14.7423V12.373H110.292V12.4Z" fill="white"/>
<path d="M35.1499 12.4V37.4116C35.1499 45.6231 24.4075 48.7193 20.0191 41.7731L17.7575 38.1654L15.496 41.7731C11.1345 48.7193 0.365234 45.6231 0.365234 37.4116V12.4H8.33447V35.7423C8.33447 36.4423 9.24985 36.7116 9.62677 36.1193L14.6883 28.0423C16.1152 25.7808 19.3999 25.7808 20.8268 28.0423L25.8883 36.1193C26.2652 36.7116 27.1806 36.4423 27.1806 35.7423V12.4H35.1499Z" fill="white"/>
<path d="M162.927 25.1884C162.927 22.55 165.054 20.423 167.692 20.423H173.131V12.4269H167.692C160.638 12.4269 154.904 18.1615 154.904 25.2153V45.4615H162.927V25.1884Z" fill="white"/>
<path d="M144.673 35.2577H144.619C143.812 36.7115 142.25 37.7346 140.446 37.7346H133.15C130.808 37.7346 129.166 36.4962 128.6 34.8L141.819 31.8923C146.289 30.9231 149.546 26.8846 149.546 22.3077C149.546 19.6692 148.523 17.2192 146.666 15.3615C144.808 13.5039 142.331 12.4808 139.719 12.4808L133.15 12.4539C126.096 12.4539 120.389 18.1616 120.389 25.2154V33.3462C120.389 40.4 126.096 45.7039 133.15 45.7039H140.446C144.296 45.7039 147.743 43.9808 150.085 41.2885L144.673 35.2577ZM128.385 25.1885C128.385 22.55 130.539 20.3962 133.177 20.3962L139.746 20.3692C140.419 20.3692 140.877 20.7192 141.093 20.9346C141.308 21.15 141.658 21.5808 141.658 22.2808C141.658 23.1692 141.039 23.95 140.177 24.1385L128.412 26.75L128.385 25.1885Z" fill="white"/>
<path d="M57.1998 12.4269H49.4998C45.6498 12.4269 42.2036 14.15 39.8613 16.8423L45.2998 22.9H45.3536C46.1613 21.4461 47.7229 20.423 49.5267 20.423H56.8229C59.1652 20.423 60.8075 21.6615 61.3729 23.3576L48.1536 26.2653C43.6844 27.2346 40.4267 31.273 40.4267 35.85C40.4267 38.4884 41.4498 40.9384 43.3075 42.7961C45.1652 44.6538 47.6421 45.6769 50.2536 45.6769L54.6959 45.7038C56.3382 45.7038 58.2767 45.1115 59.7036 43.7384C60.2152 43.2269 60.9152 42.9576 61.6152 42.9576V45.7038H69.5844V24.7846C69.5575 17.973 64.0113 12.4269 57.1998 12.4269ZM50.2267 37.7615C49.5536 37.7615 49.0959 37.4115 48.8806 37.1961C48.6652 36.9807 48.3152 36.55 48.3152 35.85C48.3152 34.9615 48.9344 34.1807 49.7959 33.9923L61.5613 31.3807V37.7076L50.2267 37.7615Z" fill="white"/>
</svg>
